<svg width="928" height="293" xmlns="http://www.w3.org/2000/svg" preserveAspectRatio="xMidYMid meet">
 <metadata>Created by potrace 1.16, written by Peter Selinger 2001-2019</metadata>

 <g>
  <title>Layer 1</title>
  <g transform="translate(0,808) scale(0.10000000149011612,-0.10000000149011612) " fill="#000000" id="svg_1">
   <path d="m8672.50014,7107.5336l0,-130l-80,0l-80,0l0,-65l0,-64l78,-3l77,-3l5,-320c5,-306 6,-322 27,-362c29,-54 84,-98 142,-114c54,-15 144,-15 184,0c26,10 27,14 27,77l0,66l-27,-8c-16,-5 -52,-8 -81,-8c-57,1 -91,23 -111,72c-8,18 -10,122 -9,312l3,285l110,5l110,5l0,63l0,62l-112,0l-112,0l-3,128l-3,127l-72,3l-73,3l0,-131z" id="svg_2"/>
   <path d="m593.50014,6997.5336c-76,-16 -151,-72 -198,-146c-10,-16 -12,-7 -12,54l-1,72l-70,0l-70,0l0,-460l0,-460l74,0l75,0l3,308c3,338 2,330 70,407c60,69 138,91 251,72l47,-8l0,74c0,57 -4,76 -15,81c-30,11 -111,14 -154,6z" id="svg_3"/>
   <path d="m1170.50014,6997.5336c-161,-27 -296,-163 -343,-345c-32,-125 -10,-298 51,-402c131,-224 454,-289 661,-132c51,38 122,122 123,144c0,6 -25,23 -55,38l-55,27l-63,-63c-91,-94 -189,-119 -314,-82c-104,31 -204,156 -207,259l-1,51l360,2l360,2l3,39c4,53 -22,172 -52,237c-53,117 -171,204 -306,225c-73,11 -95,11 -162,0zm186,-142c64,-19 140,-100 162,-171c16,-51 16,-60 4,-68c-16,-10 -509,-13 -534,-3c-21,8 -20,23 3,77c27,63 87,126 146,153c57,27 151,32 219,12z" id="svg_4"/>
   <path d="m2532.50014,6997.5336c-89,-16 -159,-50 -221,-107c-112,-104 -152,-203 -152,-373c-1,-128 16,-187 78,-286c169,-265 595,-264 752,3c14,24 24,45 22,47c-2,2 -31,15 -64,29l-60,26l-15,-22c-8,-12 -35,-43 -60,-68c-81,-84 -217,-104 -328,-49c-71,36 -115,82 -151,160c-23,48 -26,68 -26,160c0,99 2,110 33,172c62,126 161,185 296,176c104,-7 166,-44 227,-138l16,-24l61,23c37,14 62,29 62,38c0,30 -74,125 -128,164c-31,22 -79,46 -107,54c-65,18 -178,26 -235,15z" id="svg_5"/>
   <path d="m3532.50014,7000.5336c-143,-17 -281,-113 -345,-239c-38,-76 -55,-148 -55,-244c0,-143 38,-245 128,-341c210,-227 602,-175 745,98c47,92 61,160 55,281c-4,89 -9,109 -41,176c-59,125 -162,218 -277,250c-62,17 -157,26 -210,19zm167,-148c66,-20 144,-89 178,-159c73,-149 42,-347 -70,-445c-70,-61 -111,-76 -210,-76c-78,0 -97,4 -140,27c-158,84 -222,269 -158,463c21,65 118,165 183,188c58,20 153,21 217,2z" id="svg_6"/>
   <path d="m4596.50014,6993.5336c-67,-16 -132,-55 -177,-105c-20,-23 -39,-41 -42,-41c-3,0 -5,29 -5,65l0,65l-70,0l-70,0l0,-460l0,-460l75,0l75,0l0,288c0,164 4,303 10,324c15,54 69,128 118,162c76,53 213,48 283,-11c63,-54 64,-55 69,-423l5,-335l73,-3l73,-3l-3,358l-3,358l-26,55c-47,98 -115,149 -224,169c-71,13 -95,13 -161,-3z" id="svg_7"/>
   <path d="m5946.50014,6997.5336c-65,-13 -136,-54 -182,-104c-23,-25 -45,-46 -47,-46c-3,0 -5,29 -5,65l0,65l-70,0l-70,0l0,-460l0,-460l75,0l75,0l0,288c0,164 4,303 10,324c15,54 69,128 118,162c76,53 213,48 283,-11c63,-54 64,-55 69,-423l5,-335l73,-3l73,-3l-3,358c-3,341 -4,360 -24,404c-28,59 -87,125 -135,149c-35,18 -143,41 -184,39c-11,-1 -39,-5 -61,-9z" id="svg_8"/>
   <path d="m6876.50014,6992.5336c-147,-32 -259,-134 -315,-291c-33,-89 -33,-273 -1,-367c32,-91 95,-174 172,-225c82,-55 153,-75 260,-74c105,0 190,26 261,77c52,39 129,127 129,149c0,6 -25,24 -55,39l-55,27l-63,-63c-92,-94 -189,-119 -317,-81c-104,31 -217,182 -208,278l3,31l360,2l360,3l-1,71c-5,227 -143,395 -354,428c-80,13 -99,13 -176,-4zm200,-137c64,-19 140,-100 162,-171c16,-51 16,-60 4,-68c-16,-10 -509,-13 -534,-3c-23,9 -20,27 13,92c55,108 138,161 250,162c35,0 82,-6 105,-12z" id="svg_9"/>
   <path d="m7932.50014,6997.5336c-89,-16 -159,-50 -221,-107c-112,-104 -152,-203 -152,-373c-1,-128 16,-187 78,-286c169,-265 595,-264 752,3c14,24 24,45 22,47c-2,2 -31,15 -64,29l-60,26l-15,-22c-8,-12 -35,-43 -60,-68c-81,-84 -217,-104 -328,-49c-71,36 -115,82 -151,160c-23,48 -26,68 -26,160c0,99 2,110 33,172c62,126 161,185 296,176c104,-7 166,-44 227,-138l16,-24l61,23c37,14 62,29 62,38c0,30 -74,125 -128,164c-31,22 -79,46 -107,54c-65,18 -178,26 -235,15z" id="svg_10"/>
   <path d="m1884.50014,6746.5336c-20,-6 -40,-22 -52,-42c-48,-78 -6,-164 83,-174c43,-5 49,-3 82,30c27,27 35,43 35,71c0,85 -67,138 -148,115z" id="svg_11"/>
   <path d="m5255.50014,6746.5336c-47,-14 -73,-52 -73,-109c0,-42 4,-52 35,-79c42,-37 85,-40 133,-11c111,68 31,235 -95,199z" id="svg_12"/>
  </g>
  <line fill-opacity="0" stroke-linecap="undefined" stroke-linejoin="undefined" id="svg_15" y2="212.21404" x2="179.71537" y1="212.21404" x1="19.71597" opacity="undefined" stroke-dasharray="null" stroke-width="9" stroke="#3e8bee" fill="none"/>
 </g>
</svg>